<?xml version="1.0" encoding="UTF-8"?>
<svg id="Layer_1" data-name="Layer 1" xmlns="http://www.w3.org/2000/svg" viewBox="0 0 386.79 125.77">
  <defs>
    <style>
      .cls-1, .cls-2 {
        fill: #fff;
      }

      .cls-3 {
        fill: #231f20;
        stroke: #231f20;
        stroke-miterlimit: 10;
      }

      .cls-2 {
        font-family: Lora-Regular, Lora;
        font-size: 30px;
        font-variation-settings: 'wght' 400;
      }
    </style>
  </defs>
  <path class="cls-3" d="m386.29,62.89c0-33.87-26.83-61.41-60.28-62.34v-.04H62.52C28.27.5.5,28.43.5,62.89s27.77,62.39,62.02,62.39h263.49v-.04c33.45-.93,60.28-28.47,60.28-62.34Z"/>
  <text class="cls-2" transform="translate(46.07 73.36)"><tspan x="0" y="0">На компьютер</tspan></text>
  <g>
    <path class="cls-1" d="m333.36,80.13v-41.87c0-.68-.55-1.23-1.23-1.23h-56.65c-.68,0-1.23.55-1.23,1.23v41.87c0,.68.55,1.23,1.23,1.23h56.65c.68,0,1.23-.55,1.23-1.23Zm-2.46-1.23h-54.19v-39.41h54.19v39.41Z"/>
    <path class="cls-1" d="m341.98,83.82h-3.69v-46.8c0-2.72-2.2-4.93-4.93-4.93h-59.11c-2.72,0-4.93,2.2-4.93,4.93v46.8h-3.69c-.68,0-1.23.55-1.23,1.23v3.69c0,2.72,2.2,4.93,4.93,4.93h68.97c2.72,0,4.93-2.2,4.93-4.93v-3.69c0-.68-.55-1.23-1.23-1.23Zm-70.2-46.8c0-1.36,1.1-2.46,2.46-2.46h59.11c1.36,0,2.46,1.1,2.46,2.46v46.8h-27.09c-.68,0-1.23.55-1.23,1.23v1.23h-7.39v-1.23c0-.68-.55-1.23-1.23-1.23h-27.09v-46.8Zm68.97,51.73c0,1.36-1.1,2.46-2.46,2.46h-68.97c-1.36,0-2.46-1.1-2.46-2.46v-2.46h30.79v1.23c0,.68.55,1.23,1.23,1.23h9.85c.68,0,1.23-.55,1.23-1.23v-1.23h30.79v2.46Z"/>
  </g>
</svg>