<?xml version="1.0" encoding="UTF-8"?>
<svg id="Layer_1" data-name="Layer 1" xmlns="http://www.w3.org/2000/svg" viewBox="0 0 386.79 125.77">
  <defs>
    <style>
      .cls-1 {
        fill: #231f20;
        stroke: #231f20;
      }

      .cls-1, .cls-2 {
        stroke-miterlimit: 10;
      }

      .cls-2 {
        fill: none;
        stroke: #fff;
        stroke-width: 3px;
      }

      .cls-3 {
        fill: #fff;
        font-family: Lora-Regular, Lora;
        font-size: 30px;
        font-variation-settings: 'wght' 400;
      }
    </style>
  </defs>
  <path class="cls-1" d="m386.29,62.89c0-33.87-26.83-61.41-60.28-62.34v-.04H62.52C28.27.5.5,28.43.5,62.89s27.77,62.39,62.02,62.39h263.49v-.04c33.45-.93,60.28-28.47,60.28-62.34Z"/>
  <text class="cls-3" transform="translate(67.61 73.36)"><tspan x="0" y="0">На телефон</tspan></text>
  <path class="cls-2" d="m281.43,22.42h42.88c1.48,0,2.68,1.58,2.68,3.52v73.89c0,1.94-1.2,3.52-2.68,3.52h-42.88c-1.48,0-2.68-1.58-2.68-3.52V25.94c0-1.94,1.2-3.52,2.68-3.52Z"/>
  <line class="cls-2" x1="278.75" y1="84.85" x2="326.99" y2="84.85"/>
  <ellipse class="cls-2" cx="302.57" cy="93.51" rx="1.34" ry="1.04"/>
  <line class="cls-2" x1="278.75" y1="27.5" x2="326.99" y2="27.5"/>
  <ellipse class="cls-2" cx="289.92" cy="93.51" rx="1.34" ry="1.04"/>
  <ellipse class="cls-2" cx="315.22" cy="93.51" rx="1.34" ry="1.04"/>
</svg>